<svg xmlns="http://www.w3.org/2000/svg" fill="none" viewBox="0 0 64 64">
  <path fill="#004CBF" d="M32 10h-4V8a1.9999 1.9999 0 0 0-2-2H16a2 2 0 0 0-2 2v2h-4a5.9997 5.9997 0 0 0-6 6v36a5.9999 5.9999 0 0 0 6 6h22a5.9996 5.9996 0 0 0 4.2426-1.7574A5.9996 5.9996 0 0 0 38 52V16a5.9996 5.9996 0 0 0-1.7574-4.2426A5.9996 5.9996 0 0 0 32 10Zm-14 0h6v4h-6v-4Zm16 42a2 2 0 0 1-2 2H10a1.9999 1.9999 0 0 1-2-2V16a2 2 0 0 1 2-2h4v2a2 2 0 0 0 2 2h10a2 2 0 0 0 2-2v-2h4a2 2 0 0 1 2 2v36Zm24-30h-5v-4a2 2 0 0 0-2-2h-6a2 2 0 0 0-2 2v4h-1a2 2 0 0 0 0 4v24c.0031.3921.1213.7746.34 1.1l4 6a2.0007 2.0007 0 0 0 2.6005.6496A2.002 2.002 0 0 0 49.66 57.1l4-6A2.0002 2.0002 0 0 0 54 50V26h2v14a2 2 0 0 0 4 0V24a2 2 0 0 0-2-2Zm-11-2h2v2h-2v-2Zm3 29.4-2 3-2-3V26h4v23.4ZM30 26a2 2 0 0 1-2 2H14a2 2 0 0 1 0-4h14a2 2 0 0 1 2 2Zm-6 6a2 2 0 0 1-2 2h-8a2 2 0 0 1 0-4h8a2 2 0 0 1 2 2Z"/>
</svg>
