<svg xmlns="http://www.w3.org/2000/svg" fill="none" viewBox="0 0 64 64">
  <path fill="#004CBF" d="M25.2 9.02A2.0007 2.0007 0 0 0 23.52 8a2.0004 2.0004 0 0 0-1.74.9L5.66 33.6l-.12.22a18 18 0 0 0 1.54 17.22A18.16 18.16 0 0 0 22.36 60a18.18 18.18 0 0 0 15.3-8.96 18.0007 18.0007 0 0 0 1.46-17.32L25.2 9.02Zm9.06 40A14.2003 14.2003 0 0 1 22.36 56a14.24 14.24 0 0 1-11.9-7.08 14 14 0 0 1-1.38-13.24l14.26-21.84 12.24 21.74a14 14 0 0 1-1.32 13.34v.1Zm22-23.76-.1-.16-5-8a1.9996 1.9996 0 0 0-1.7-.9465 2.0005 2.0005 0 0 0-1.7.9465l-4.98 8a1.1071 1.1071 0 0 0-.1.16 7.42 7.42 0 1 0 13.58 0Zm-4 4.9a3.1602 3.1602 0 0 1-4.4559 1.252A3.1605 3.1605 0 0 1 46.64 30.16a3.3799 3.3799 0 0 1-.42-3.06l3.22-5.2 3.24 5.2a3.4398 3.4398 0 0 1-.44 2.9l.02.16Z"/>
</svg>
