<svg xmlns="http://www.w3.org/2000/svg" fill="none" viewBox="0 0 64 64">
  <path fill="#004CBF" d="M55.32 12.5 51.5 8.68a11.32 11.32 0 0 0-16 0l-3.74 3.76L8.68 35.52a11.32 11.32 0 0 0 0 16l3.82 3.82a11.32 11.32 0 0 0 16 0l3.76-3.76 23.06-23.1a11.3198 11.3198 0 0 0 0-15.98Zm-24.5 34.82L16.68 33.18l16.5-16.5 14.14 14.14-16.5 16.5Zm-15.5 5.18-3.82-3.82a7.32 7.32 0 0 1 0-10.32L13.86 36 28 50.14l-2.36 2.36a7.32 7.32 0 0 1-10.32 0ZM52.5 25.64 50.14 28 36 13.86l2.36-2.36a7.3397 7.3397 0 0 1 10.32 0l3.82 3.82a7.32 7.32 0 0 1 0 10.32Zm-25.58 7.78a2 2 0 0 1-2.3902 1.9616 2.0004 2.0004 0 0 1-1.5714-1.5714A2 2 0 1 1 26.92 33.42Zm5.66 5.66a2 2 0 0 1-2.3902 1.9616 2.0004 2.0004 0 0 1-1.5714-1.5714A2 2 0 1 1 32.58 39.08Zm-3.42-8a2 2 0 0 1-1.9616-2.3902 2.0004 2.0004 0 0 1 1.5714-1.5714A2 2 0 0 1 31.16 29.08c.0108.2693-.033.538-.1286.79a2.0011 2.0011 0 0 1-1.0871 1.1305 1.9998 1.9998 0 0 1-.7843.1595v-.08Zm7.66 3.66a2 2 0 0 1-2.3902 1.9616 2.0004 2.0004 0 0 1-1.5714-1.5714A2 2 0 0 1 34.82 32.74a1.9998 1.9998 0 0 1 2 2.08v-.08Zm-5.4-9.9a2 2 0 0 1 2.3902-1.9616 2.0004 2.0004 0 0 1 1.5714 1.5714A2 2 0 0 1 33.42 26.84a2.0003 2.0003 0 0 1-2-1.92v-.08Zm9.66 5.66a2 2 0 0 1-2.3902 1.9616 2.0004 2.0004 0 0 1-1.5714-1.5714A2 2 0 0 1 39.08 28.5a1.9998 1.9998 0 0 1 2 2.08v-.08Z"/>
</svg>
