<svg xmlns="http://www.w3.org/2000/svg" fill="none" viewBox="0 0 64 64">
  <path fill="#004CBF" d="M53.4201 10.58a15.1002 15.1002 0 0 0-21.3 0l-21.54 21.54a15.0614 15.0614 0 1 0 21.3 21.3l21.54-21.54a15.1 15.1 0 0 0 0-21.3Zm-24.38 40a11.0454 11.0454 0 0 1-7.81 3.235 11.0447 11.0447 0 0 1-11.045-11.045 11.0449 11.0449 0 0 1 3.235-7.81l9.34-9.36 15.64 15.64-9.36 9.34Zm21.54-21.54-9.34 9.36-15.64-15.64 9.36-9.34a11.0451 11.0451 0 0 1 15.62 15.62Zm-2.58-1.04-3.9 3.9a2.0003 2.0003 0 0 1-1.4171.5811 2.0006 2.0006 0 0 1-1.8444-1.2418 2.0004 2.0004 0 0 1 .0054-1.5316 2.0013 2.0013 0 0 1 .4361-.6477l3.9-3.9a5.5201 5.5201 0 0 0 0-7.82 2 2 0 0 1 0-2.82 2 2 0 0 1 2.82 0 9.5402 9.5402 0 0 1 0 13.48Z"/>
</svg>
