<svg xmlns="http://www.w3.org/2000/svg" fill="none" viewBox="0 0 244 25">
  <path fill="#00C0B9" d="M4.992 13.776 3.84 24H.912L3.216 6.36l6.888 11.4 6.912-11.4L19.32 24h-2.928l-1.176-10.224-5.112 8.664-5.112-8.664ZM21.9551 7.2h2.832v11.16c0 1.04.272 1.88.816 2.52.56.624 1.384.936 2.472.936 1.072 0 1.888-.312 2.448-.936.56-.64.84-1.48.84-2.52V7.2h2.832v11.28c0 .928-.152 1.76-.456 2.496-.288.72-.704 1.336-1.248 1.848s-1.192.904-1.944 1.176c-.752.272-1.576.408-2.472.408-.896 0-1.72-.136-2.472-.408-.752-.272-1.408-.664-1.968-1.176-.544-.512-.96-1.128-1.248-1.848-.288-.736-.432-1.568-.432-2.496V7.2Zm15.87 0h2.88V24h-2.88V7.2Zm5.424 16.8h-3.672v-2.664h3.6c.832 0 1.6-.12 2.304-.36.704-.24 1.312-.6 1.824-1.08.528-.48.936-1.08 1.224-1.8.304-.72.456-1.552.456-2.496s-.152-1.776-.456-2.496c-.288-.72-.696-1.32-1.224-1.8-.512-.48-1.12-.84-1.824-1.08-.704-.24-1.472-.36-2.304-.36h-3.6V7.2h3.672c1.712 0 3.216.352 4.512 1.056 1.296.688 2.304 1.664 3.024 2.928.736 1.248 1.104 2.72 1.104 4.416 0 1.696-.368 3.176-1.104 4.44-.72 1.248-1.728 2.224-3.024 2.928-1.296.688-2.8 1.032-4.512 1.032Zm14.8602-8.016h3.072L66.8693 24h-3.408l-5.352-8.016ZM54.6533 7.2h2.832V24h-2.832V7.2Zm1.68 2.448V7.2h3.5039c1.2161 0 2.2721.216 3.1681.648.912.432 1.616 1.04 2.1119 1.824.4961.768.7441 1.68.7441 2.736 0 1.056-.248 1.976-.7441 2.76-.4959.784-1.1999 1.392-2.1119 1.824-.896.432-1.952.648-3.1681.648h-3.5039v-2.328h3.384c.64 0 1.2-.112 1.68-.336.496-.224.88-.544 1.152-.96.272-.432.408-.944.408-1.536 0-.608-.136-1.12-.408-1.536-.272-.416-.656-.736-1.152-.96-.48-.224-1.04-.336-1.68-.336h-3.384Zm12.7374 13.128c0-.464.16-.856.48-1.176.336-.336.736-.504 1.2-.504.496 0 .904.168 1.224.504.32.32.48.712.48 1.176 0 .448-.16.84-.48 1.176-.32.336-.728.504-1.224.504-.464 0-.864-.168-1.2-.504-.32-.336-.48-.728-.48-1.176Zm12.7776-12.96V7.2h11.712v2.616h-4.44V24h-2.856V9.816h-4.416ZM97.8154 24.24c-1.12 0-2.112-.24-2.976-.72-.848-.48-1.504-1.152-1.968-2.016-.464-.864-.696-1.872-.696-3.024 0-1.168.232-2.184.696-3.048.48-.864 1.152-1.528 2.016-1.992.864-.48 1.88-.72 3.048-.72 1.168 0 2.1596.224 2.9756.672.816.448 1.44 1.096 1.872 1.944.448.832.672 1.84.672 3.024 0 .128-.008.264-.024.408 0 .144-.008.248-.024.312h-9.6956v-1.776h7.4876l-.792 1.104c.048-.096.096-.224.144-.384.064-.176.096-.32.096-.432 0-.592-.12-1.104-.36-1.536-.224-.432-.5436-.768-.9596-1.008-.4-.24-.872-.36-1.416-.36-.656 0-1.216.144-1.68.432-.464.288-.816.704-1.056 1.248-.24.544-.368 1.216-.384 2.016 0 .8.12 1.48.36 2.04.24.544.592.96 1.056 1.248.48.288 1.056.432 1.728.432.704 0 1.32-.144 1.848-.432.5276-.288.9676-.728 1.3196-1.32l2.232.912c-.576.992-1.32 1.736-2.232 2.232-.912.496-2.0076.744-3.2876.744Zm10.6816-11.28V24h-2.568V12.96h2.568Zm3.288 2.76c-.24-.192-.464-.336-.672-.432-.208-.096-.472-.144-.792-.144-.432 0-.784.112-1.056.336-.272.224-.472.536-.6.936-.112.384-.168.84-.168 1.368l-.864-.504c0-.88.16-1.656.48-2.328.336-.688.76-1.232 1.272-1.632.528-.4 1.072-.6 1.632-.6.4 0 .776.064 1.128.192.352.112.648.32.888.624l-1.248 2.184Zm7.476 8.52c-1.12 0-2.112-.24-2.976-.72-.848-.48-1.504-1.152-1.968-2.016-.464-.864-.696-1.872-.696-3.024 0-1.168.232-2.184.696-3.048.48-.864 1.152-1.528 2.016-1.992.864-.48 1.88-.72 3.048-.72 1.168 0 2.16.224 2.976.672.816.448 1.44 1.096 1.872 1.944.448.832.672 1.84.672 3.024 0 .128-.008.264-.024.408 0 .144-.008.248-.024.312h-9.696v-1.776h7.488l-.792 1.104c.048-.096.096-.224.144-.384.064-.176.096-.32.096-.432 0-.592-.12-1.104-.36-1.536-.224-.432-.544-.768-.96-1.008-.4-.24-.872-.36-1.416-.36-.656 0-1.216.144-1.68.432-.464.288-.816.704-1.056 1.248-.24.544-.368 1.216-.384 2.016 0 .8.12 1.48.36 2.04.24.544.592.96 1.056 1.248.48.288 1.056.432 1.728.432.704 0 1.32-.144 1.848-.432.528-.288.968-.728 1.32-1.32l2.232.912c-.576.992-1.32 1.736-2.232 2.232-.912.496-2.008.744-3.288.744Zm12.898-8.88h-5.592v-2.4h10.08l-6.312 8.64h5.712V24h-10.32l6.432-8.64Zm8.145 5.208c0 .368.088.688.264.96.176.256.416.448.72.576.32.128.68.192 1.08.192.512 0 .976-.104 1.392-.312.432-.208.776-.512 1.032-.912.272-.416.408-.896.408-1.44l.384 1.44c0 .704-.208 1.296-.624 1.776-.4.464-.912.816-1.536 1.056-.608.224-1.232.336-1.872.336-.688 0-1.328-.136-1.92-.408-.592-.272-1.064-.672-1.416-1.2-.352-.528-.528-1.168-.528-1.92 0-1.072.376-1.92 1.128-2.544.752-.64 1.816-.96 3.192-.96.736 0 1.368.08 1.896.24.544.16.992.352 1.344.576.352.208.6.4.744.576v1.32c-.496-.352-1.024-.608-1.584-.768-.56-.16-1.152-.24-1.776-.24-.544 0-.984.072-1.32.216-.336.128-.592.312-.768.552-.16.24-.24.536-.24.888Zm-.816-4.728-1.056-1.824c.496-.304 1.136-.6 1.92-.888.8-.288 1.712-.432 2.736-.432.912 0 1.712.136 2.4.408.704.272 1.256.664 1.656 1.176.4.496.6 1.112.6 1.848V24H145.2v-7.368c0-.352-.064-.64-.192-.864a1.451 1.451 0 0 0-.48-.552c-.208-.144-.456-.248-.744-.312s-.6-.096-.936-.096c-.512 0-1 .064-1.464.192-.448.112-.84.256-1.176.432-.32.16-.56.296-.72.408Zm20.777-.24c0 1.184.264 2.224.792 3.12.544.896 1.248 1.592 2.112 2.088.88.48 1.832.72 2.856.72.8 0 1.52-.104 2.16-.312.64-.208 1.216-.488 1.728-.84.528-.368.984-.776 1.368-1.224v3.36c-.704.576-1.464 1.016-2.28 1.32-.816.304-1.84.456-3.072.456s-2.384-.208-3.456-.624c-1.056-.416-1.976-1.016-2.76-1.8-.784-.784-1.4-1.704-1.848-2.76-.432-1.072-.648-2.24-.648-3.504 0-1.264.216-2.424.648-3.48.448-1.072 1.064-2 1.848-2.784.784-.784 1.704-1.384 2.76-1.8 1.072-.416 2.224-.624 3.456-.624 1.232 0 2.256.152 3.072.456.816.304 1.576.744 2.28 1.32v3.36c-.384-.448-.84-.848-1.368-1.2-.512-.368-1.088-.656-1.728-.864-.64-.208-1.36-.312-2.16-.312-1.024 0-1.976.248-2.856.744-.864.48-1.568 1.168-2.112 2.064-.528.88-.792 1.92-.792 3.12Zm5.664-12.576L168.401.84l1.728 1.272-4.2 3.36-4.2-3.36L163.481.84l2.448 2.184Zm13.425 21.216c-1.12 0-2.112-.24-2.976-.72-.848-.48-1.504-1.152-1.968-2.016-.464-.864-.696-1.872-.696-3.024 0-1.168.232-2.184.696-3.048.48-.864 1.152-1.528 2.016-1.992.864-.48 1.88-.72 3.048-.72 1.168 0 2.16.224 2.976.672.816.448 1.44 1.096 1.872 1.944.448.832.672 1.84.672 3.024 0 .128-.008.264-.024.408 0 .144-.008.248-.024.312h-9.696v-1.776h7.488l-.792 1.104c.048-.096.096-.224.144-.384.064-.176.096-.32.096-.432 0-.592-.12-1.104-.36-1.536-.224-.432-.544-.768-.96-1.008-.4-.24-.872-.36-1.416-.36-.656 0-1.216.144-1.68.432-.464.288-.816.704-1.056 1.248-.24.544-.368 1.216-.384 2.016 0 .8.12 1.48.36 2.04.24.544.592.96 1.056 1.248.48.288 1.056.432 1.728.432.704 0 1.32-.144 1.848-.432.528-.288.968-.728 1.32-1.32l2.232.912c-.576.992-1.32 1.736-2.232 2.232-.912.496-2.008.744-3.288.744Zm10.683-11.28V24h-2.568V12.96h2.568Zm3.288 2.76c-.24-.192-.464-.336-.672-.432-.208-.096-.472-.144-.792-.144-.432 0-.784.112-1.056.336-.272.224-.472.536-.6.936-.112.384-.168.84-.168 1.368l-.864-.504c0-.88.16-1.656.48-2.328.336-.688.76-1.232 1.272-1.632.528-.4 1.072-.6 1.632-.6.4 0 .776.064 1.128.192.352.112.648.32.888.624l-1.248 2.184Zm2.073-2.76h2.832l2.88 7.128 2.88-7.128h2.856l-5.736 12.048-5.712-12.048Zm17.519 11.28c-1.12 0-2.112-.24-2.976-.72-.848-.48-1.504-1.152-1.968-2.016-.464-.864-.696-1.872-.696-3.024 0-1.168.232-2.184.696-3.048.48-.864 1.152-1.528 2.016-1.992.864-.48 1.88-.72 3.048-.72 1.168 0 2.16.224 2.976.672.816.448 1.44 1.096 1.872 1.944.448.832.672 1.84.672 3.024 0 .128-.008.264-.024.408 0 .144-.008.248-.024.312h-9.696v-1.776h7.488l-.792 1.104c.048-.096.096-.224.144-.384.064-.176.096-.32.096-.432 0-.592-.12-1.104-.36-1.536-.224-.432-.544-.768-.96-1.008-.4-.24-.872-.36-1.416-.36-.656 0-1.216.144-1.68.432-.464.288-.816.704-1.056 1.248-.24.544-.368 1.216-.384 2.016 0 .8.12 1.48.36 2.04.24.544.592.96 1.056 1.248.48.288 1.056.432 1.728.432.704 0 1.32-.144 1.848-.432.528-.288.968-.728 1.32-1.32l2.232.912c-.576.992-1.32 1.736-2.232 2.232-.912.496-2.008.744-3.288.744Zm15.218-6.96c0-.816-.168-1.432-.504-1.848-.336-.416-.856-.624-1.56-.624-.48 0-.904.104-1.272.312-.368.192-.656.48-.864.864-.208.368-.312.8-.312 1.296V24h-2.592V12.96h2.592v1.704c.352-.656.8-1.144 1.344-1.464.56-.32 1.224-.48 1.992-.48 1.248 0 2.2.384 2.856 1.152.656.752.984 1.792.984 3.12V24h-2.664v-6.72Zm7.606 3.456c0 .336.08.616.24.84.16.224.392.4.696.528.304.112.672.168 1.104.168.56 0 1.064-.088 1.512-.264.448-.176.8-.456 1.056-.84.256-.384.384-.896.384-1.536l.384 1.248c0 .704-.184 1.312-.552 1.824-.368.496-.864.88-1.488 1.152-.624.256-1.32.384-2.088.384s-1.448-.128-2.04-.384c-.576-.272-1.024-.648-1.344-1.128-.32-.496-.48-1.08-.48-1.752 0-.832.2-1.52.6-2.064.416-.56.984-.984 1.704-1.272.72-.288 1.528-.432 2.424-.432.64 0 1.208.08 1.704.24.512.16.936.344 1.272.552.336.208.568.392.696.552v1.368c-.496-.368-1-.632-1.512-.792-.512-.176-1.104-.264-1.776-.264-.544 0-1.008.08-1.392.24-.368.144-.648.36-.84.648-.176.272-.264.6-.264.984Zm-.576-4.872-1.032-1.848c.496-.304 1.128-.6 1.896-.888.768-.288 1.648-.432 2.64-.432.912 0 1.712.136 2.4.408.688.272 1.224.664 1.608 1.176.4.496.6 1.112.6 1.848V24h-2.544v-7.584c0-.512-.216-.904-.648-1.176-.416-.288-.928-.432-1.536-.432-.528 0-1.016.064-1.464.192-.448.128-.84.28-1.176.456-.32.16-.568.296-.744.408Zm7.464-8.208-4.32 3.6-1.464-.84 3.6-3.84 2.184 1.08Z"/>
</svg>
