<svg xmlns="http://www.w3.org/2000/svg" fill="none" viewBox="0 0 31 22">
  <path fill="#fff" d="m29.651 11.9249-9.4042 9c-.2533.2342-.5927.3637-.9449.3608-.3523-.0029-.6892-.1381-.9383-.3765s-.3904-.5609-.3935-.898c-.003-.3371.1324-.6619.3771-.9043l7.1109-6.8053H1.8322c-.3563 0-.698-.1355-.95-.3766-.2519-.2411-.3934-.5682-.3934-.9091 0-.341.1415-.6681.3935-.9092.2519-.2411.5936-.3766.95-.3766H25.458l-7.1109-6.8053a1.2875 1.2875 0 0 1-.3011-.4173 1.2396 1.2396 0 0 1-.109-.4963 1.2392 1.2392 0 0 1 .1-.498 1.2832 1.2832 0 0 1 .2935-.4223 1.3487 1.3487 0 0 1 .4412-.2808 1.3964 1.3964 0 0 1 .5204-.0957c.1784.0015.3547.037.5186.1043a1.346 1.346 0 0 1 .436.2881l9.4042 9.0001c.2518.2411.3933.568.3933.909 0 .3409-.1415.6678-.3933.909Z"/>
</svg>
