<svg xmlns="http://www.w3.org/2000/svg" fill="none" viewBox="0 0 64 64">
  <path fill="#004CBF" d="M58 6H6a2 2 0 0 0-2 2v42a2 2 0 0 0 2 2h52a2 2 0 0 0 2-2V8a1.9999 1.9999 0 0 0-2-2Zm-2 42H8V10h48v38Zm-44-2h40a2 2 0 0 0 2-2V14a2 2 0 0 0-2-2H12a2 2 0 0 0-2 2v30a2 2 0 0 0 2 2Zm2-30h36v26H14V16Zm34 12a2 2 0 0 1-2 2h-4a2.0003 2.0003 0 0 1-1.78-1.1l-.22-.42-4.22 8.42A2.0005 2.0005 0 0 1 34 38a2.0007 2.0007 0 0 1-1.0687-.3493 2.001 2.001 0 0 1-.7113-.8707L27.38 25.5l-3.9 4A1.9993 1.9993 0 0 1 22 30h-4a2 2 0 0 1 0-4h3.18l5.4-5.42a2.0004 2.0004 0 0 1 1.8-.54 1.999 1.999 0 0 1 .877.4081c.2546.2057.4548.4708.583.7719l4.3 10 4-8.14a1.9996 1.9996 0 0 1 1.78-1.0881A1.9999 1.9999 0 0 1 41.7 23.08L43.24 26H46a2 2 0 0 1 2 2Zm-6 28a2 2 0 0 1-2 2H22a2 2 0 0 1 0-4h18a2 2 0 0 1 2 2Z"/>
</svg>
