<svg xmlns="http://www.w3.org/2000/svg" fill="none" viewBox="0 0 64 64">
  <path fill="#004CBF" d="M18 30a2 2 0 0 1-2-2v-2h-2a2 2 0 0 1 0-4h2v-2a2 2 0 0 1 4 0v2h2a2 2 0 0 1 0 4h-2v2a2 2 0 0 1-2 2Zm40 11v4a6.0001 6.0001 0 0 1-4 5.64V53a2 2 0 0 1-4 0v-2.36A6.0001 6.0001 0 0 1 46 45v-4a5.9997 5.9997 0 0 1 4-5.66 1.9899 1.9899 0 0 1 0-.34V25a3.9996 3.9996 0 0 0-1.1716-2.8284 3.9996 3.9996 0 0 0-5.6568 0A3.9996 3.9996 0 0 0 42 25v22a12.0003 12.0003 0 0 1-12 12 14 14 0 0 1-14-14v-3h-2.96A7.0601 7.0601 0 0 1 6 34.96v-20A7.0598 7.0598 0 0 1 13.04 8H16V6a1.9999 1.9999 0 1 1 4 0v2h2.96A7.06 7.06 0 0 1 30 15.04v20A7.06 7.06 0 0 1 22.96 42H20v3a10.0003 10.0003 0 0 0 10 10 8.0005 8.0005 0 0 0 5.6569-2.3431A8.0005 8.0005 0 0 0 38 47V25a8.0005 8.0005 0 0 1 2.3431-5.6569 8.0005 8.0005 0 0 1 11.3138 0A8.0005 8.0005 0 0 1 54 25v10a1.9899 1.9899 0 0 1 0 .34A6.0003 6.0003 0 0 1 58 41Zm-44.96-3h10A3.04 3.04 0 0 0 26 34.96v-20A3.04 3.04 0 0 0 22.96 12h-10A3.04 3.04 0 0 0 10 15.04v20A3.04 3.04 0 0 0 13.04 38ZM54 41a2 2 0 0 0-4 0v4a2 2 0 0 0 4 0v-4Z"/>
</svg>
