<svg xmlns="http://www.w3.org/2000/svg" fill="none" viewBox="0 0 64 64">
  <path fill="#004CBF" d="M58.52 24.3799a16.0002 16.0002 0 0 1-4.72 11.38l-16.82 16.82a15.8371 15.8371 0 0 1-3.9 2.84h-.5a2.1332 2.1332 0 0 1-.5 0 2.1332 2.1332 0 0 1-.5 0h-.5a15.8396 15.8396 0 0 1-4-2.84l-10.5-10.44a2.0082 2.0082 0 1 1 2.84-2.84l10.44 10.44a10.5957 10.5957 0 0 0 2.14 1.66 10.5957 10.5957 0 0 0 2.14-1.66l16.82-16.82a12.0915 12.0915 0 0 0-17.1-17.1l-.44.44a1.9987 1.9987 0 0 1-.9336.5168 1.9985 1.9985 0 0 1-1.0664-.0368h-.28l-.28-.2a2.4297 2.4297 0 0 1-.38-.24l-.44-.44a12.0995 12.0995 0 0 0-12.9245-2.6095A12.0999 12.0999 0 0 0 9.48 23.9999a2.0001 2.0001 0 1 1-4 0 15.9997 15.9997 0 0 1 9.449-14.443A16 16 0 0 1 32 12.0998a16.0004 16.0004 0 0 1 17.2446-2.465 16.0006 16.0006 0 0 1 6.8203 5.9995 16.0007 16.0007 0 0 1 2.4551 8.7455Zm-41.22 10.84 4.2-9.22 3.3 12.54a2.0004 2.0004 0 0 0 1.84 1.5 1.9999 1.9999 0 0 0 1.86-1.3l3.9-10.34 1.84 2.74a2 2 0 0 0 1.76.86h6a2.0003 2.0003 0 0 0 2-2 2 2 0 0 0-2-2h-4.92l-3.42-5.1a2.0004 2.0004 0 0 0-1.88-.88 2.0006 2.0006 0 0 0-1.66 1.28l-3.04 8.12-3.08-11.92a2.0002 2.0002 0 0 0-1.84-1.5 2.0002 2.0002 0 0 0-2 1.18l-4.44 9.82a2.0004 2.0004 0 0 0-1.72-1H6a2.0003 2.0003 0 0 0-2 2 2.0001 2.0001 0 0 0 2 2h6.56l1.02 3.04a2.0003 2.0003 0 0 0 1.8 1.36 1.9994 1.9994 0 0 0 1.92-1.18Z"/>
</svg>
