<svg xmlns="http://www.w3.org/2000/svg" fill="none" viewBox="0 0 64 64">
  <path fill="#004CBF" d="m35.2401 40.12 13.64-13.66a2 2 0 0 0 .58-1.7l-1.28-8.9 2.12-2.12 2.84-2.84a1.9998 1.9998 0 0 0 .58-1.4 1.9989 1.9989 0 0 0-.58-1.5 1.9999 1.9999 0 0 0-2.84 0l-4.94 5.02-8.92-1.26a2 2 0 0 0-1.7.56l-25.2 25.22a2.0003 2.0003 0 0 0 0 2.82l1.42 1.42-2.84 2.84a2.0018 2.0018 0 0 0-2.1823-.426 2.0017 2.0017 0 0 0-1.0792 1.0868 2.0007 2.0007 0 0 0 .4415 2.1792l8.48 8.54a2 2 0 0 0 2.82 0 2 2 0 0 0 0-2.82l2.82-2.84 1.4 1.42a1.9991 1.9991 0 0 0 1.42.58 1.9991 1.9991 0 0 0 1.42-.58l6.48-6.48 5.08-5.06.02-.1Zm-21.46 10.14-2.82-2.82 2.82-2.84 2.82 2.84-2.82 2.82Zm8.48-2.82-1.42-1.44-5.66-5.64-1.4-1.4 23.08-23.1 7.44 1.06 1.06 7.42-11.54 11.54-4.24-4.24a1.9998 1.9998 0 0 0-2.1891-.4377 1.9992 1.9992 0 0 0-.6509.4377 2.0003 2.0003 0 0 0 0 2.82l4.26 4.24-2.26 2.24-4.24-4.24a1.9998 1.9998 0 0 0-2.82 0 2.0004 2.0004 0 0 0 0 2.84l4.32 4.24-3.74 3.66Zm36.54-5.86-3.62-8.48a1.9999 1.9999 0 0 0-2.9428-.8846 2.0005 2.0005 0 0 0-.7372.8846l-3.64 8.48a6.0002 6.0002 0 0 0 5.47 8.4656 5.9998 5.9998 0 0 0 5.47-8.4656Zm-3.84 3.42a2.0003 2.0003 0 0 1-1.63.8411 2.0002 2.0002 0 0 1-1.63-.8411 1.999 1.999 0 0 1-.16-1.84l1.8-4.2 1.8 4.2a2.0005 2.0005 0 0 1-.18 1.84Z"/>
</svg>
